<svg width="15" height="15" viewBox="0 0 15 15" fill="none" xmlns="http://www.w3.org/2000/svg">
<g clip-path="url(#clip0_1694_11796)">
<path d="M4.84717 1.25H10.8472C11.7754 1.25 12.6657 1.61875 13.322 2.27513C13.9784 2.9315 14.3472 3.82174 14.3472 4.75C14.3472 5.01522 14.2418 5.26957 14.0543 5.45711C13.8667 5.64464 13.6124 5.75 13.3472 5.75H2.34717C2.08195 5.75 1.8276 5.64464 1.64006 5.45711C1.45252 5.26957 1.34717 5.01522 1.34717 4.75C1.34717 3.82174 1.71592 2.9315 2.37229 2.27513C3.02867 1.61875 3.91891 1.25 4.84717 1.25V1.25Z" stroke="#1BAC4B" stroke-linecap="round" stroke-linejoin="round"/>
<path d="M1.34717 8.25H14.3472" stroke="#1BAC4B" stroke-linecap="round" stroke-linejoin="round"/>
<path d="M13.8472 10.75H7.84717L6.34717 12.25L3.34717 10.75H1.84717C1.71456 10.75 1.58738 10.8027 1.49361 10.8964C1.39985 10.9902 1.34717 11.1174 1.34717 11.25V11.25C1.34717 12.0456 1.66324 12.8087 2.22585 13.3713C2.78846 13.9339 3.55152 14.25 4.34717 14.25H11.3472C12.1428 14.25 12.9059 13.9339 13.4685 13.3713C14.0311 12.8087 14.3472 12.0456 14.3472 11.25C14.3472 11.1174 14.2945 10.9902 14.2007 10.8964C14.107 10.8027 13.9798 10.75 13.8472 10.75Z" stroke="#1BAC4B" stroke-linecap="round" stroke-linejoin="round"/>
</g>
<defs>
<clipPath id="clip0_1694_11796">
<rect width="14" height="14" fill="white" transform="translate(0.847168 0.75)"/>
</clipPath>
</defs>
</svg>
